STARTFONT 2.1
COMMENT ter7x14.bdf - 7x14 terminal font
COMMENT 
COMMENT $Id: ter7x14.bdf,v 1.3 1994/05/09 04:12:11 tim Exp $
COMMENT $Source: /home/tim/src/ter7x14/ter7x14.bdf,v $
COMMENT 
COMMENT A modified version of X11R5 mit/fonts/bdf/misc/7x14.bdf.
COMMENT The following is from the original:
COMMENT 
COMMENT    Donated by H. Kagotani <kagotani@cs.titech.ac.jp>; public domain
COMMENT    font from Japan
COMMENT 
COMMENT This font is designed with easy readablity and fixed width in
COMMENT mind; it should be thought of as a "Terminal" font, in my
COMMENT opinion.
COMMENT 
COMMENT Copyright (c) 1994	Tim Cook <tim@deakin.edu.au>
COMMENT 
COMMENT The X Consortium, and any party obtaining a copy of these files
COMMENT from the X Consortium, directly or indirectly, is granted, free
COMMENT of charge, a full and unrestricted irrevocable, world-wide,
COMMENT paid up, royalty-free, nonexclusive right and license to deal
COMMENT in this software and documentation files (the "Software"),
COMMENT including without limitation the rights to use, copy, modify,
COMMENT merge, publish, distribute, sublicense, and/or sell copies of
COMMENT the Software, and to permit persons who receive copies from any
COMMENT such party to do so.  This license includes without limitation
COMMENT a license to do the foregoing actions under any patents of the
COMMENT party supplying this software to the X Consortium.
COMMENT 
FONT -Misc-Terminal-Medium-R-Normal--14-130-75-75-C-70-ISO8859-1
SIZE 7 75 75
FONTBOUNDINGBOX 7 14 0 -2
STARTPROPERTIES 19
FONTNAME_REGISTRY ""
FOUNDRY "Misc"
FAMILY_NAME "Terminal"
WEIGHT_NAME "Medium"
SLANT "R"
SETWIDTH_NAME "Normal"
ADD_STYLE_NAME ""
PIXEL_SIZE 14
POINT_SIZE 130
RESOLUTION_X 75
RESOLUTION_Y 75
SPACING "C"
AVERAGE_WIDTH 70
CHARSET_REGISTRY "ISO8859"
CHARSET_ENCODING "1"
DEFAULT_CHAR 32
FONT_DESCENT 2
FONT_ASCENT 12
COPYRIGHT "(c) 1994, Tim Cook"
ENDPROPERTIES
CHARS 209
STARTCHAR 0001
ENCODING 1
SWIDTH 480 0
DWIDTH 7 0
BBX 7 14 0 -2
BITMAP
00
00
18
18
3c
3c
7e
7e
3c
3c
18
18
00
00
ENDCHAR
STARTCHAR 0002
ENCODING 2
SWIDTH 480 0
DWIDTH 7 0
BBX 7 14 0 -2
BITMAP
54
aa
54
aa
54
aa
54
aa
54
aa
54
aa
54
aa
ENDCHAR
STARTCHAR 000b
ENCODING 11
SWIDTH 480 0
DWIDTH 7 0
BBX 7 14 0 -2
BITMAP
10
10
10
10
10
10
10
f0
00
00
00
00
00
00
ENDCHAR
STARTCHAR 000c
ENCODING 12
SWIDTH 480 0
DWIDTH 7 0
BBX 7 14 0 -2
BITMAP
00
00
00
00
00
00
00
f0
10
10
10
10
10
10
ENDCHAR
STARTCHAR 000d
ENCODING 13
SWIDTH 480 0
DWIDTH 7 0
BBX 7 14 0 -2
BITMAP
00
00
00
00
00
00
00
1e
10
10
10
10
10
10
ENDCHAR
STARTCHAR 000e
ENCODING 14
SWIDTH 480 0
DWIDTH 7 0
BBX 7 14 0 -2
BITMAP
10
10
10
10
10
10
10
1e
00
00
00
00
00
00
ENDCHAR
STARTCHAR 000f
ENCODING 15
SWIDTH 480 0
DWIDTH 7 0
BBX 7 14 0 -2
BITMAP
10
10
10
10
10
10
10
fe
10
10
10
10
10
10
ENDCHAR
STARTCHAR 0010
ENCODING 16
SWIDTH 480 0
DWIDTH 7 0
BBX 7 14 0 -2
BITMAP
fe
00
00
00
00
00
00
00
00
00
00
00
00
00
ENDCHAR
STARTCHAR 0011
ENCODING 17
SWIDTH 480 0
DWIDTH 7 0
BBX 7 14 0 -2
BITMAP
00
00
00
00
fe
00
00
00
00
00
00
00
00
00
ENDCHAR
STARTCHAR 0012
ENCODING 18
SWIDTH 480 0
DWIDTH 7 0
BBX 7 14 0 -2
BITMAP
00
00
00
00
00
00
00
fe
00
00
00
00
00
00
ENDCHAR
STARTCHAR 0013
ENCODING 19
SWIDTH 480 0
DWIDTH 7 0
BBX 7 14 0 -2
BITMAP
00
00
00
00
00
00
00
00
00
fe
00
00
00
00
ENDCHAR
STARTCHAR 0014
ENCODING 20
SWIDTH 480 0
DWIDTH 7 0
BBX 7 14 0 -2
BITMAP
00
00
00
00
00
00
00
00
00
00
00
00
00
fe
ENDCHAR
STARTCHAR 0015
ENCODING 21
SWIDTH 480 0
DWIDTH 7 0
BBX 7 14 0 -2
BITMAP
10
10
10
10
10
10
10
1e
10
10
10
10
10
10
ENDCHAR
STARTCHAR 0016
ENCODING 22
SWIDTH 480 0
DWIDTH 7 0
BBX 7 14 0 -2
BITMAP
10
10
10
10
10
10
10
f0
10
10
10
10
10
10
ENDCHAR
STARTCHAR 0017
ENCODING 23
SWIDTH 480 0
DWIDTH 7 0
BBX 7 14 0 -2
BITMAP
10
10
10
10
10
10
10
fe
00
00
00
00
00
00
ENDCHAR
STARTCHAR 0018
ENCODING 24
SWIDTH 480 0
DWIDTH 7 0
BBX 7 14 0 -2
BITMAP
00
00
00
00
00
00
00
fe
10
10
10
10
10
10
ENDCHAR
STARTCHAR 0019
ENCODING 25
SWIDTH 480 0
DWIDTH 7 0
BBX 7 14 0 -2
BITMAP
10
10
10
10
10
10
10
10
10
10
10
10
10
10
ENDCHAR
STARTCHAR 0020
ENCODING 32
SWIDTH 480 0
DWIDTH 7 0
BBX 7 14 0 -2
BITMAP
00
00
00
00
00
00
00
00
00
00
00
00
00
00
ENDCHAR
STARTCHAR 0021
ENCODING 33
SWIDTH 480 0
DWIDTH 7 0
BBX 7 14 0 -2
BITMAP
00
00
10
10
10
10
10
10
10
00
10
10
00
00
ENDCHAR
STARTCHAR 0022
ENCODING 34
SWIDTH 480 0
DWIDTH 7 0
BBX 7 14 0 -2
BITMAP
00
24
24
24
00
00
00
00
00
00
00
00
00
00
ENDCHAR
STARTCHAR 0023
ENCODING 35
SWIDTH 480 0
DWIDTH 7 0
BBX 7 14 0 -2
BITMAP
00
00
28
28
28
7c
28
28
7c
28
28
28
00
00
ENDCHAR
STARTCHAR 0024
ENCODING 36
SWIDTH 480 0
DWIDTH 7 0
BBX 7 14 0 -2
BITMAP
00
00
10
38
54
50
30
18
14
14
54
38
10
00
ENDCHAR
STARTCHAR 0025
ENCODING 37
SWIDTH 480 0
DWIDTH 7 0
BBX 7 14 0 -2
BITMAP
00
00
24
54
28
08
10
10
20
28
54
48
00
00
ENDCHAR
STARTCHAR 0026
ENCODING 38
SWIDTH 480 0
DWIDTH 7 0
BBX 7 14 0 -2
BITMAP
00
00
20
50
50
20
20
50
54
48
4c
34
00
00
ENDCHAR
STARTCHAR 0027
ENCODING 39
SWIDTH 480 0
DWIDTH 7 0
BBX 7 14 0 -2
BITMAP
00
0c
08
08
10
00
00
00
00
00
00
00
00
00
ENDCHAR
STARTCHAR 0028
ENCODING 40
SWIDTH 480 0
DWIDTH 7 0
BBX 7 14 0 -2
BITMAP
00
04
08
10
10
20
20
20
20
10
10
08
04
00
ENDCHAR
STARTCHAR 0029
ENCODING 41
SWIDTH 480 0
DWIDTH 7 0
BBX 7 14 0 -2
BITMAP
00
40
20
10
10
08
08
08
08
10
10
20
40
00
ENDCHAR
STARTCHAR 002a
ENCODING 42
SWIDTH 480 0
DWIDTH 7 0
BBX 7 14 0 -2
BITMAP
00
00
00
10
54
38
10
38
54
10
00
00
00
00
ENDCHAR
STARTCHAR 002b
ENCODING 43
SWIDTH 480 0
DWIDTH 7 0
BBX 7 14 0 -2
BITMAP
00
00
00
00
10
10
10
7c
10
10
10
00
00
00
ENDCHAR
STARTCHAR 002c
ENCODING 44
SWIDTH 480 0
DWIDTH 7 0
BBX 7 14 0 -2
BITMAP
00
00
00
00
00
00
00
00
00
00
30
10
10
20
ENDCHAR
STARTCHAR 002d
ENCODING 45
SWIDTH 480 0
DWIDTH 7 0
BBX 7 14 0 -2
BITMAP
00
00
00
00
00
00
00
7c
00
00
00
00
00
00
ENDCHAR
STARTCHAR 002e
ENCODING 46
SWIDTH 480 0
DWIDTH 7 0
BBX 7 14 0 -2
BITMAP
00
00
00
00
00
00
00
00
00
00
10
38
10
00
ENDCHAR
STARTCHAR 002f
ENCODING 47
SWIDTH 480 0
DWIDTH 7 0
BBX 7 14 0 -2
BITMAP
00
04
04
08
08
10
10
10
20
20
40
40
00
00
ENDCHAR
STARTCHAR 0030
ENCODING 48
SWIDTH 480 0
DWIDTH 7 0
BBX 7 14 0 -2
BITMAP
00
00
10
28
44
44
44
44
44
44
28
10
00
00
ENDCHAR
STARTCHAR 0031
ENCODING 49
SWIDTH 480 0
DWIDTH 7 0
BBX 7 14 0 -2
BITMAP
00
00
10
30
50
10
10
10
10
10
10
7c
00
00
ENDCHAR
STARTCHAR 0032
ENCODING 50
SWIDTH 480 0
DWIDTH 7 0
BBX 7 14 0 -2
BITMAP
00
00
38
44
04
04
04
08
10
20
40
7c
00
00
ENDCHAR
STARTCHAR 0033
ENCODING 51
SWIDTH 480 0
DWIDTH 7 0
BBX 7 14 0 -2
BITMAP
00
00
38
44
04
04
18
04
04
04
44
38
00
00
ENDCHAR
STARTCHAR 0034
ENCODING 52
SWIDTH 480 0
DWIDTH 7 0
BBX 7 14 0 -2
BITMAP
00
00
08
08
18
18
28
28
48
7c
08
08
00
00
ENDCHAR
STARTCHAR 0035
ENCODING 53
SWIDTH 480 0
DWIDTH 7 0
BBX 7 14 0 -2
BITMAP
00
00
7c
40
40
78
44
04
04
04
44
38
00
00
ENDCHAR
STARTCHAR 0036
ENCODING 54
SWIDTH 480 0
DWIDTH 7 0
BBX 7 14 0 -2
BITMAP
00
00
18
20
40
40
58
64
44
44
44
38
00
00
ENDCHAR
STARTCHAR 0037
ENCODING 55
SWIDTH 480 0
DWIDTH 7 0
BBX 7 14 0 -2
BITMAP
00
00
7c
44
04
08
08
10
10
20
20
20
00
00
ENDCHAR
STARTCHAR 0038
ENCODING 56
SWIDTH 480 0
DWIDTH 7 0
BBX 7 14 0 -2
BITMAP
00
00
38
44
44
28
10
28
44
44
44
38
00
00
ENDCHAR
STARTCHAR 0039
ENCODING 57
SWIDTH 480 0
DWIDTH 7 0
BBX 7 14 0 -2
BITMAP
00
00
38
44
44
44
44
3c
04
08
08
30
00
00
ENDCHAR
STARTCHAR 003a
ENCODING 58
SWIDTH 480 0
DWIDTH 7 0
BBX 7 14 0 -2
BITMAP
00
00
00
00
10
38
10
00
00
10
38
10
00
00
ENDCHAR
STARTCHAR 003b
ENCODING 59
SWIDTH 480 0
DWIDTH 7 0
BBX 7 14 0 -2
BITMAP
00
00
00
00
10
38
10
00
00
18
18
18
30
00
ENDCHAR
STARTCHAR 003c
ENCODING 60
SWIDTH 480 0
DWIDTH 7 0
BBX 7 14 0 -2
BITMAP
00
00
00
04
08
10
20
40
20
10
08
04
00
00
ENDCHAR
STARTCHAR 003d
ENCODING 61
SWIDTH 480 0
DWIDTH 7 0
BBX 7 14 0 -2
BITMAP
00
00
00
00
00
7e
00
00
7e
00
00
00
00
00
ENDCHAR
STARTCHAR 003e
ENCODING 62
SWIDTH 480 0
DWIDTH 7 0
BBX 7 14 0 -2
BITMAP
00
00
00
40
20
10
08
04
08
10
20
40
00
00
ENDCHAR
STARTCHAR 003f
ENCODING 63
SWIDTH 480 0
DWIDTH 7 0
BBX 7 14 0 -2
BITMAP
00
00
38
44
44
04
08
10
10
00
00
10
00
00
ENDCHAR
STARTCHAR 0040
ENCODING 64
SWIDTH 480 0
DWIDTH 7 0
BBX 7 14 0 -2
BITMAP
00
00
18
24
4c
54
54
54
54
48
20
1c
00
00
ENDCHAR
STARTCHAR 0041
ENCODING 65
SWIDTH 480 0
DWIDTH 7 0
BBX 7 14 0 -2
BITMAP
00
00
10
28
44
44
44
7c
44
44
44
44
00
00
ENDCHAR
STARTCHAR 0042
ENCODING 66
SWIDTH 480 0
DWIDTH 7 0
BBX 7 14 0 -2
BITMAP
00
00
78
44
44
44
78
44
44
44
44
78
00
00
ENDCHAR
STARTCHAR 0043
ENCODING 67
SWIDTH 480 0
DWIDTH 7 0
BBX 7 14 0 -2
BITMAP
00
00
38
44
40
40
40
40
40
40
44
38
00
00
ENDCHAR
STARTCHAR 0044
ENCODING 68
SWIDTH 480 0
DWIDTH 7 0
BBX 7 14 0 -2
BITMAP
00
00
70
48
44
44
44
44
44
44
48
70
00
00
ENDCHAR
STARTCHAR 0045
ENCODING 69
SWIDTH 480 0
DWIDTH 7 0
BBX 7 14 0 -2
BITMAP
00
00
7c
40
40
40
78
40
40
40
40
7c
00
00
ENDCHAR
STARTCHAR 0046
ENCODING 70
SWIDTH 480 0
DWIDTH 7 0
BBX 7 14 0 -2
BITMAP
00
00
7c
40
40
40
78
40
40
40
40
40
00
00
ENDCHAR
STARTCHAR 0047
ENCODING 71
SWIDTH 480 0
DWIDTH 7 0
BBX 7 14 0 -2
BITMAP
00
00
38
44
40
40
40
4c
44
44
44
38
00
00
ENDCHAR
STARTCHAR 0048
ENCODING 72
SWIDTH 480 0
DWIDTH 7 0
BBX 7 14 0 -2
BITMAP
00
00
44
44
44
44
44
7c
44
44
44
44
00
00
ENDCHAR
STARTCHAR 0049
ENCODING 73
SWIDTH 480 0
DWIDTH 7 0
BBX 7 14 0 -2
BITMAP
00
00
38
10
10
10
10
10
10
10
10
38
00
00
ENDCHAR
STARTCHAR 004a
ENCODING 74
SWIDTH 480 0
DWIDTH 7 0
BBX 7 14 0 -2
BITMAP
00
00
04
04
04
04
04
04
04
04
44
38
00
00
ENDCHAR
STARTCHAR 004b
ENCODING 75
SWIDTH 480 0
DWIDTH 7 0
BBX 7 14 0 -2
BITMAP
00
00
44
48
50
60
50
50
48
48
44
44
00
00
ENDCHAR
STARTCHAR 004c
ENCODING 76
SWIDTH 480 0
DWIDTH 7 0
BBX 7 14 0 -2
BITMAP
00
00
40
40
40
40
40
40
40
40
40
7c
00
00
ENDCHAR
STARTCHAR 004d
ENCODING 77
SWIDTH 480 0
DWIDTH 7 0
BBX 7 14 0 -2
BITMAP
00
00
44
6c
6c
54
54
44
44
44
44
44
00
00
ENDCHAR
STARTCHAR 004e
ENCODING 78
SWIDTH 480 0
DWIDTH 7 0
BBX 7 14 0 -2
BITMAP
00
00
44
44
64
64
54
54
4c
4c
44
44
00
00
ENDCHAR
STARTCHAR 004f
ENCODING 79
SWIDTH 480 0
DWIDTH 7 0
BBX 7 14 0 -2
BITMAP
00
00
38
44
44
44
44
44
44
44
44
38
00
00
ENDCHAR
STARTCHAR 0050
ENCODING 80
SWIDTH 480 0
DWIDTH 7 0
BBX 7 14 0 -2
BITMAP
00
00
78
44
44
44
44
78
40
40
40
40
00
00
ENDCHAR
STARTCHAR 0051
ENCODING 81
SWIDTH 480 0
DWIDTH 7 0
BBX 7 14 0 -2
BITMAP
00
00
38
44
44
44
44
44
44
54
5c
38
04
00
ENDCHAR
STARTCHAR 0052
ENCODING 82
SWIDTH 480 0
DWIDTH 7 0
BBX 7 14 0 -2
BITMAP
00
00
78
44
44
44
44
78
50
48
44
44
00
00
ENDCHAR
STARTCHAR 0053
ENCODING 83
SWIDTH 480 0
DWIDTH 7 0
BBX 7 14 0 -2
BITMAP
00
00
38
44
40
40
38
04
04
04
44
38
00
00
ENDCHAR
STARTCHAR 0054
ENCODING 84
SWIDTH 480 0
DWIDTH 7 0
BBX 7 14 0 -2
BITMAP
00
00
7c
10
10
10
10
10
10
10
10
10
00
00
ENDCHAR
STARTCHAR 0055
ENCODING 85
SWIDTH 480 0
DWIDTH 7 0
BBX 7 14 0 -2
BITMAP
00
00
44
44
44
44
44
44
44
44
44
38
00
00
ENDCHAR
STARTCHAR 0056
ENCODING 86
SWIDTH 480 0
DWIDTH 7 0
BBX 7 14 0 -2
BITMAP
00
00
44
44
44
44
28
28
28
10
10
10
00
00
ENDCHAR
STARTCHAR 0057
ENCODING 87
SWIDTH 480 0
DWIDTH 7 0
BBX 7 14 0 -2
BITMAP
00
00
44
44
44
44
44
54
54
6c
6c
44
00
00
ENDCHAR
STARTCHAR 0058
ENCODING 88
SWIDTH 480 0
DWIDTH 7 0
BBX 7 14 0 -2
BITMAP
00
00
44
44
28
28
10
10
28
28
44
44
00
00
ENDCHAR
STARTCHAR 0059
ENCODING 89
SWIDTH 480 0
DWIDTH 7 0
BBX 7 14 0 -2
BITMAP
00
00
44
44
44
28
28
10
10
10
10
10
00
00
ENDCHAR
STARTCHAR 005a
ENCODING 90
SWIDTH 480 0
DWIDTH 7 0
BBX 7 14 0 -2
BITMAP
00
00
7c
04
08
08
10
10
20
20
40
7c
00
00
ENDCHAR
STARTCHAR 005b
ENCODING 91
SWIDTH 480 0
DWIDTH 7 0
BBX 7 14 0 -2
BITMAP
00
3c
20
20
20
20
20
20
20
20
20
20
3c
00
ENDCHAR
STARTCHAR 005c
ENCODING 92
SWIDTH 480 0
DWIDTH 7 0
BBX 7 14 0 -2
BITMAP
00
40
40
20
20
10
10
10
08
08
04
04
00
00
ENDCHAR
STARTCHAR 005d
ENCODING 93
SWIDTH 480 0
DWIDTH 7 0
BBX 7 14 0 -2
BITMAP
00
78
08
08
08
08
08
08
08
08
08
08
78
00
ENDCHAR
STARTCHAR 005e
ENCODING 94
SWIDTH 480 0
DWIDTH 7 0
BBX 7 14 0 -2
BITMAP
00
18
24
42
00
00
00
00
00
00
00
00
00
00
ENDCHAR
STARTCHAR 005f
ENCODING 95
SWIDTH 480 0
DWIDTH 7 0
BBX 7 14 0 -2
BITMAP
00
00
00
00
00
00
00
00
00
00
00
00
7c
00
ENDCHAR
STARTCHAR 0060
ENCODING 96
SWIDTH 480 0
DWIDTH 7 0
BBX 7 14 0 -2
BITMAP
00
18
08
08
04
00
00
00
00
00
00
00
00
00
ENDCHAR
STARTCHAR 0061
ENCODING 97
SWIDTH 480 0
DWIDTH 7 0
BBX 7 14 0 -2
BITMAP
00
00
00
00
00
38
44
04
3c
44
44
3c
00
00
ENDCHAR
STARTCHAR 0062
ENCODING 98
SWIDTH 480 0
DWIDTH 7 0
BBX 7 14 0 -2
BITMAP
00
00
40
40
40
78
44
44
44
44
44
78
00
00
ENDCHAR
STARTCHAR 0063
ENCODING 99
SWIDTH 480 0
DWIDTH 7 0
BBX 7 14 0 -2
BITMAP
00
00
00
00
00
38
44
40
40
40
44
38
00
00
ENDCHAR
STARTCHAR 0064
ENCODING 100
SWIDTH 480 0
DWIDTH 7 0
BBX 7 14 0 -2
BITMAP
00
00
04
04
04
3c
44
44
44
44
44
3c
00
00
ENDCHAR
STARTCHAR 0065
ENCODING 101
SWIDTH 480 0
DWIDTH 7 0
BBX 7 14 0 -2
BITMAP
00
00
00
00
00
38
44
44
7c
40
44
38
00
00
ENDCHAR
STARTCHAR 0066
ENCODING 102
SWIDTH 480 0
DWIDTH 7 0
BBX 7 14 0 -2
BITMAP
00
00
1c
20
20
20
7c
20
20
20
20
20
00
00
ENDCHAR
STARTCHAR 0067
ENCODING 103
SWIDTH 480 0
DWIDTH 7 0
BBX 7 14 0 -2
BITMAP
00
00
00
00
00
38
44
44
44
44
3c
04
44
38
ENDCHAR
STARTCHAR 0068
ENCODING 104
SWIDTH 480 0
DWIDTH 7 0
BBX 7 14 0 -2
BITMAP
00
00
40
40
40
78
44
44
44
44
44
44
00
00
ENDCHAR
STARTCHAR 0069
ENCODING 105
SWIDTH 480 0
DWIDTH 7 0
BBX 7 14 0 -2
BITMAP
00
00
10
10
00
30
10
10
10
10
10
38
00
00
ENDCHAR
STARTCHAR 006a
ENCODING 106
SWIDTH 480 0
DWIDTH 7 0
BBX 7 14 0 -2
BITMAP
00
00
08
08
00
18
08
08
08
08
08
08
48
30
ENDCHAR
STARTCHAR 006b
ENCODING 107
SWIDTH 480 0
DWIDTH 7 0
BBX 7 14 0 -2
BITMAP
00
00
40
40
40
44
48
50
70
50
48
44
00
00
ENDCHAR
STARTCHAR 006c
ENCODING 108
SWIDTH 480 0
DWIDTH 7 0
BBX 7 14 0 -2
BITMAP
00
00
30
10
10
10
10
10
10
10
10
38
00
00
ENDCHAR
STARTCHAR 006d
ENCODING 109
SWIDTH 480 0
DWIDTH 7 0
BBX 7 14 0 -2
BITMAP
00
00
00
00
00
68
54
54
54
54
54
44
00
00
ENDCHAR
STARTCHAR 006e
ENCODING 110
SWIDTH 480 0
DWIDTH 7 0
BBX 7 14 0 -2
BITMAP
00
00
00
00
00
78
44
44
44
44
44
44
00
00
ENDCHAR
STARTCHAR 006f
ENCODING 111
SWIDTH 480 0
DWIDTH 7 0
BBX 7 14 0 -2
BITMAP
00
00
00
00
00
38
44
44
44
44
44
38
00
00
ENDCHAR
STARTCHAR 0070
ENCODING 112
SWIDTH 480 0
DWIDTH 7 0
BBX 7 14 0 -2
BITMAP
00
00
00
00
00
78
44
44
44
44
44
78
40
40
ENDCHAR
STARTCHAR 0071
ENCODING 113
SWIDTH 480 0
DWIDTH 7 0
BBX 7 14 0 -2
BITMAP
00
00
00
00
00
3c
44
44
44
44
44
3c
04
04
ENDCHAR
STARTCHAR 0072
ENCODING 114
SWIDTH 480 0
DWIDTH 7 0
BBX 7 14 0 -2
BITMAP
00
00
00
00
00
78
44
40
40
40
40
40
00
00
ENDCHAR
STARTCHAR 0073
ENCODING 115
SWIDTH 480 0
DWIDTH 7 0
BBX 7 14 0 -2
BITMAP
00
00
00
00
00
38
44
20
18
04
44
38
00
00
ENDCHAR
STARTCHAR 0074
ENCODING 116
SWIDTH 480 0
DWIDTH 7 0
BBX 7 14 0 -2
BITMAP
00
00
20
20
20
78
20
20
20
20
20
18
00
00
ENDCHAR
STARTCHAR 0075
ENCODING 117
SWIDTH 480 0
DWIDTH 7 0
BBX 7 14 0 -2
BITMAP
00
00
00
00
00
44
44
44
44
44
44
38
00
00
ENDCHAR
STARTCHAR 0076
ENCODING 118
SWIDTH 480 0
DWIDTH 7 0
BBX 7 14 0 -2
BITMAP
00
00
00
00
00
44
44
44
28
28
10
10
00
00
ENDCHAR
STARTCHAR 0077
ENCODING 119
SWIDTH 480 0
DWIDTH 7 0
BBX 7 14 0 -2
BITMAP
00
00
00
00
00
44
44
54
54
54
54
28
00
00
ENDCHAR
STARTCHAR 0078
ENCODING 120
SWIDTH 480 0
DWIDTH 7 0
BBX 7 14 0 -2
BITMAP
00
00
00
00
00
44
44
28
10
28
44
44
00
00
ENDCHAR
STARTCHAR 0079
ENCODING 121
SWIDTH 480 0
DWIDTH 7 0
BBX 7 14 0 -2
BITMAP
00
00
00
00
00
44
44
44
44
44
3c
04
44
38
ENDCHAR
STARTCHAR 007a
ENCODING 122
SWIDTH 480 0
DWIDTH 7 0
BBX 7 14 0 -2
BITMAP
00
00
00
00
00
7c
04
08
10
20
40
7c
00
00
ENDCHAR
STARTCHAR 007b
ENCODING 123
SWIDTH 480 0
DWIDTH 7 0
BBX 7 14 0 -2
BITMAP
00
0c
10
20
20
20
10
60
10
20
20
20
10
0c
ENDCHAR
STARTCHAR 007c
ENCODING 124
SWIDTH 480 0
DWIDTH 7 0
BBX 7 14 0 -2
BITMAP
00
10
10
10
10
10
10
10
10
10
10
10
10
10
ENDCHAR
STARTCHAR 007d
ENCODING 125
SWIDTH 480 0
DWIDTH 7 0
BBX 7 14 0 -2
BITMAP
00
60
10
08
08
08
10
0c
10
08
08
08
10
60
ENDCHAR
STARTCHAR 007e
ENCODING 126
SWIDTH 480 0
DWIDTH 7 0
BBX 7 14 0 -2
BITMAP
00
20
50
0a
04
00
00
00
00
00
00
00
00
00
ENDCHAR
STARTCHAR 007f
ENCODING 127
SWIDTH 480 0
DWIDTH 7 0
BBX 7 14 0 -2
BITMAP
00
00
00
00
00
00
00
00
00
00
00
00
00
00
ENDCHAR
STARTCHAR 00a0
ENCODING 160
SWIDTH 480 0
DWIDTH 7 0
BBX 7 14 0 -2
BITMAP
00
00
00
00
00
00
00
00
00
00
00
00
00
00
ENDCHAR
STARTCHAR 00a1
ENCODING 161
SWIDTH 480 0
DWIDTH 7 0
BBX 7 14 0 -2
BITMAP
00
00
10
10
00
10
10
10
10
10
10
10
00
00
ENDCHAR
STARTCHAR 00a2
ENCODING 162
SWIDTH 480 0
DWIDTH 7 0
BBX 7 14 0 -2
BITMAP
00
00
00
00
10
3e
52
50
50
50
52
3e
10
00
ENDCHAR
STARTCHAR 00a3
ENCODING 163
SWIDTH 480 0
DWIDTH 7 0
BBX 7 14 0 -2
BITMAP
00
00
00
18
24
20
20
78
20
20
78
24
00
00
ENDCHAR
STARTCHAR 00a4
ENCODING 164
SWIDTH 480 0
DWIDTH 7 0
BBX 7 14 0 -2
BITMAP
00
00
00
00
42
3c
24
24
3c
42
00
00
00
00
ENDCHAR
STARTCHAR 00a5
ENCODING 165
SWIDTH 480 0
DWIDTH 7 0
BBX 7 14 0 -2
BITMAP
00
00
42
24
18
7e
08
08
7e
08
08
08
00
00
ENDCHAR
STARTCHAR 00a6
ENCODING 166
SWIDTH 480 0
DWIDTH 7 0
BBX 7 14 0 -2
BITMAP
00
00
10
10
10
10
00
00
10
10
10
10
00
00
ENDCHAR
STARTCHAR 00a7
ENCODING 167
SWIDTH 480 0
DWIDTH 7 0
BBX 7 14 0 -2
BITMAP
00
3c
42
20
18
24
42
24
18
04
42
3c
00
00
ENDCHAR
STARTCHAR 00a8
ENCODING 168
SWIDTH 480 0
DWIDTH 7 0
BBX 7 14 0 -2
BITMAP
00
48
48
00
00
00
00
00
00
00
00
00
00
00
ENDCHAR
STARTCHAR 00a9
ENCODING 169
SWIDTH 480 0
DWIDTH 7 0
BBX 7 14 0 -2
BITMAP
00
3c
42
5a
66
62
62
62
66
5a
42
3c
00
00
ENDCHAR
STARTCHAR 00aa
ENCODING 170
SWIDTH 480 0
DWIDTH 7 0
BBX 7 14 0 -2
BITMAP
00
1c
22
1e
22
26
1a
00
3e
00
00
00
00
00
ENDCHAR
STARTCHAR 00ab
ENCODING 171
SWIDTH 480 0
DWIDTH 7 0
BBX 7 14 0 -2
BITMAP
00
00
00
00
00
0a
14
28
50
28
14
0a
00
00
ENDCHAR
STARTCHAR 00ac
ENCODING 172
SWIDTH 480 0
DWIDTH 7 0
BBX 7 14 0 -2
BITMAP
00
00
00
00
00
00
00
00
f8
08
08
08
00
00
ENDCHAR
STARTCHAR 00ad
ENCODING 173
SWIDTH 480 0
DWIDTH 7 0
BBX 7 14 0 -2
BITMAP
00
00
00
00
00
00
00
00
f0
00
00
00
00
00
ENDCHAR
STARTCHAR 00ae
ENCODING 174
SWIDTH 480 0
DWIDTH 7 0
BBX 7 14 0 -2
BITMAP
00
3c
42
7a
66
66
7a
66
66
66
42
3c
00
00
ENDCHAR
STARTCHAR 00af
ENCODING 175
SWIDTH 480 0
DWIDTH 7 0
BBX 7 14 0 -2
BITMAP
00
00
f0
00
00
00
00
00
00
00
00
00
00
00
ENDCHAR
STARTCHAR 00b0
ENCODING 176
SWIDTH 480 0
DWIDTH 7 0
BBX 7 14 0 -2
BITMAP
00
30
48
48
30
00
00
00
00
00
00
00
00
00
ENDCHAR
STARTCHAR 00b1
ENCODING 177
SWIDTH 480 0
DWIDTH 7 0
BBX 7 14 0 -2
BITMAP
00
00
00
00
00
00
10
10
7c
10
10
7c
00
00
ENDCHAR
STARTCHAR 00b2
ENCODING 178
SWIDTH 480 0
DWIDTH 7 0
BBX 7 14 0 -2
BITMAP
00
30
48
08
10
20
40
78
00
00
00
00
00
00
ENDCHAR
STARTCHAR 00b3
ENCODING 179
SWIDTH 480 0
DWIDTH 7 0
BBX 7 14 0 -2
BITMAP
00
30
48
08
30
08
48
30
00
00
00
00
00
00
ENDCHAR
STARTCHAR 00b4
ENCODING 180
SWIDTH 480 0
DWIDTH 7 0
BBX 7 14 0 -2
BITMAP
00
08
10
20
40
00
00
00
00
00
00
00
00
00
ENDCHAR
STARTCHAR 00b5
ENCODING 181
SWIDTH 480 0
DWIDTH 7 0
BBX 7 14 0 -2
BITMAP
00
00
00
00
00
00
44
44
44
44
6c
54
40
40
ENDCHAR
STARTCHAR 00b6
ENCODING 182
SWIDTH 480 0
DWIDTH 7 0
BBX 7 14 0 -2
BITMAP
00
00
3c
54
54
54
54
34
14
14
14
14
14
1c
ENDCHAR
STARTCHAR 00b7
ENCODING 183
SWIDTH 480 0
DWIDTH 7 0
BBX 7 14 0 -2
BITMAP
00
00
00
00
00
00
10
00
00
00
00
00
00
00
ENDCHAR
STARTCHAR 00b8
ENCODING 184
SWIDTH 480 0
DWIDTH 7 0
BBX 7 14 0 -2
BITMAP
00
00
00
00
00
00
00
00
00
00
00
10
10
20
ENDCHAR
STARTCHAR 00b9
ENCODING 185
SWIDTH 480 0
DWIDTH 7 0
BBX 7 14 0 -2
BITMAP
00
00
20
60
20
20
20
20
00
00
00
00
00
00
ENDCHAR
STARTCHAR 00ba
ENCODING 186
SWIDTH 480 0
DWIDTH 7 0
BBX 7 14 0 -2
BITMAP
00
00
18
24
24
18
00
3c
00
00
00
00
00
00
ENDCHAR
STARTCHAR 00bb
ENCODING 187
SWIDTH 480 0
DWIDTH 7 0
BBX 7 14 0 -2
BITMAP
00
00
00
00
00
50
28
14
0a
14
28
50
00
00
ENDCHAR
STARTCHAR 00bc
ENCODING 188
SWIDTH 480 0
DWIDTH 7 0
BBX 7 14 0 -2
BITMAP
00
00
20
62
24
24
28
12
16
2a
4e
42
00
00
ENDCHAR
STARTCHAR 00bd
ENCODING 189
SWIDTH 480 0
DWIDTH 7 0
BBX 7 14 0 -2
BITMAP
00
00
20
62
24
24
28
14
1a
22
44
4e
00
00
ENDCHAR
STARTCHAR 00be
ENCODING 190
SWIDTH 480 0
DWIDTH 7 0
BBX 7 14 0 -2
BITMAP
00
00
62
12
24
18
68
12
26
2a
4e
02
00
00
ENDCHAR
STARTCHAR 00bf
ENCODING 191
SWIDTH 480 0
DWIDTH 7 0
BBX 7 14 0 -2
BITMAP
00
00
00
08
08
00
08
08
08
08
04
42
42
3c
ENDCHAR
STARTCHAR 00c0
ENCODING 192
SWIDTH 480 0
DWIDTH 7 0
BBX 7 14 0 -2
BITMAP
20
18
00
10
28
44
44
7c
44
44
44
44
00
00
ENDCHAR
STARTCHAR 00c1
ENCODING 193
SWIDTH 480 0
DWIDTH 7 0
BBX 7 14 0 -2
BITMAP
08
30
00
10
28
44
44
7c
44
44
44
44
00
00
ENDCHAR
STARTCHAR 00c2
ENCODING 194
SWIDTH 480 0
DWIDTH 7 0
BBX 7 14 0 -2
BITMAP
10
28
44
10
28
44
44
7c
44
44
44
44
00
00
ENDCHAR
STARTCHAR 00c3
ENCODING 195
SWIDTH 480 0
DWIDTH 7 0
BBX 7 14 0 -2
BITMAP
28
50
00
10
28
44
44
7c
44
44
44
44
00
00
ENDCHAR
STARTCHAR 00c4
ENCODING 196
SWIDTH 480 0
DWIDTH 7 0
BBX 7 14 0 -2
BITMAP
48
48
00
10
28
44
44
7c
44
44
44
44
00
00
ENDCHAR
STARTCHAR 00c5
ENCODING 197
SWIDTH 480 0
DWIDTH 7 0
BBX 7 14 0 -2
BITMAP
30
30
00
10
28
44
44
7c
44
44
44
44
00
00
ENDCHAR
STARTCHAR 00c6
ENCODING 198
SWIDTH 480 0
DWIDTH 7 0
BBX 7 14 0 -2
BITMAP
00
00
1e
28
48
48
7c
48
48
48
48
4e
00
00
ENDCHAR
STARTCHAR 00c7
ENCODING 199
SWIDTH 480 0
DWIDTH 7 0
BBX 7 14 0 -2
BITMAP
00
00
38
44
40
40
40
40
40
40
44
38
08
10
ENDCHAR
STARTCHAR 00c8
ENCODING 200
SWIDTH 480 0
DWIDTH 7 0
BBX 7 14 0 -2
BITMAP
20
18
00
7c
40
40
40
78
40
40
40
7c
00
00
ENDCHAR
STARTCHAR 00c9
ENCODING 201
SWIDTH 480 0
DWIDTH 7 0
BBX 7 14 0 -2
BITMAP
08
30
00
7c
40
40
40
78
40
40
40
7c
00
00
ENDCHAR
STARTCHAR 00ca
ENCODING 202
SWIDTH 480 0
DWIDTH 7 0
BBX 7 14 0 -2
BITMAP
30
48
00
7c
40
40
40
78
40
40
40
7c
00
00
ENDCHAR
STARTCHAR 00cb
ENCODING 203
SWIDTH 480 0
DWIDTH 7 0
BBX 7 14 0 -2
BITMAP
00
28
00
7c
40
40
40
78
40
40
40
7c
00
00
ENDCHAR
STARTCHAR 00cc
ENCODING 204
SWIDTH 480 0
DWIDTH 7 0
BBX 7 14 0 -2
BITMAP
20
18
00
38
10
10
10
10
10
10
10
38
00
00
ENDCHAR
STARTCHAR 00cd
ENCODING 205
SWIDTH 480 0
DWIDTH 7 0
BBX 7 14 0 -2
BITMAP
08
30
00
38
10
10
10
10
10
10
10
38
00
00
ENDCHAR
STARTCHAR 00ce
ENCODING 206
SWIDTH 480 0
DWIDTH 7 0
BBX 7 14 0 -2
BITMAP
10
28
00
38
10
10
10
10
10
10
10
38
00
00
ENDCHAR
STARTCHAR 00cf
ENCODING 207
SWIDTH 480 0
DWIDTH 7 0
BBX 7 14 0 -2
BITMAP
00
28
00
38
10
10
10
10
10
10
10
38
00
00
ENDCHAR
STARTCHAR 00d0
ENCODING 208
SWIDTH 480 0
DWIDTH 7 0
BBX 7 14 0 -2
BITMAP
00
00
70
48
44
44
f4
44
44
44
48
70
00
00
ENDCHAR
STARTCHAR 00d1
ENCODING 209
SWIDTH 480 0
DWIDTH 7 0
BBX 7 14 0 -2
BITMAP
28
50
00
44
44
64
64
54
54
4c
4c
44
00
00
ENDCHAR
STARTCHAR 00d2
ENCODING 210
SWIDTH 480 0
DWIDTH 7 0
BBX 7 14 0 -2
BITMAP
20
18
00
38
44
44
44
44
44
44
44
38
00
00
ENDCHAR
STARTCHAR 00d3
ENCODING 211
SWIDTH 480 0
DWIDTH 7 0
BBX 7 14 0 -2
BITMAP
08
30
00
38
44
44
44
44
44
44
44
38
00
00
ENDCHAR
STARTCHAR 00d4
ENCODING 212
SWIDTH 480 0
DWIDTH 7 0
BBX 7 14 0 -2
BITMAP
30
48
00
38
44
44
44
44
44
44
44
38
00
00
ENDCHAR
STARTCHAR 00d5
ENCODING 213
SWIDTH 480 0
DWIDTH 7 0
BBX 7 14 0 -2
BITMAP
28
50
00
38
44
44
44
44
44
44
44
38
00
00
ENDCHAR
STARTCHAR 00d6
ENCODING 214
SWIDTH 480 0
DWIDTH 7 0
BBX 7 14 0 -2
BITMAP
00
28
00
38
44
44
44
44
44
44
44
38
00
00
ENDCHAR
STARTCHAR 00d7
ENCODING 215
SWIDTH 480 0
DWIDTH 7 0
BBX 7 14 0 -2
BITMAP
00
00
00
00
00
82
44
28
10
28
44
82
00
00
ENDCHAR
STARTCHAR 00d8
ENCODING 216
SWIDTH 480 0
DWIDTH 7 0
BBX 7 14 0 -2
BITMAP
04
04
38
4c
4c
54
54
54
54
64
64
38
40
40
ENDCHAR
STARTCHAR 00d9
ENCODING 217
SWIDTH 480 0
DWIDTH 7 0
BBX 7 14 0 -2
BITMAP
20
18
00
44
44
44
44
44
44
44
44
38
00
00
ENDCHAR
STARTCHAR 00da
ENCODING 218
SWIDTH 480 0
DWIDTH 7 0
BBX 7 14 0 -2
BITMAP
08
30
00
44
44
44
44
44
44
44
44
38
00
00
ENDCHAR
STARTCHAR 00db
ENCODING 219
SWIDTH 480 0
DWIDTH 7 0
BBX 7 14 0 -2
BITMAP
30
48
00
44
44
44
44
44
44
44
44
38
00
00
ENDCHAR
STARTCHAR 00dc
ENCODING 220
SWIDTH 480 0
DWIDTH 7 0
BBX 7 14 0 -2
BITMAP
00
28
00
44
44
44
44
44
44
44
44
38
00
00
ENDCHAR
STARTCHAR 00dd
ENCODING 221
SWIDTH 480 0
DWIDTH 7 0
BBX 7 14 0 -2
BITMAP
08
10
44
44
44
28
28
10
10
10
10
10
00
00
ENDCHAR
STARTCHAR 00de
ENCODING 222
SWIDTH 480 0
DWIDTH 7 0
BBX 7 14 0 -2
BITMAP
00
00
40
40
78
44
44
44
44
78
40
40
00
00
ENDCHAR
STARTCHAR 00df
ENCODING 223
SWIDTH 480 0
DWIDTH 7 0
BBX 7 14 0 -2
BITMAP
00
00
30
48
48
48
70
48
44
44
44
f8
00
00
ENDCHAR
STARTCHAR 00e0
ENCODING 224
SWIDTH 480 0
DWIDTH 7 0
BBX 7 14 0 -2
BITMAP
00
20
10
08
00
38
44
04
3c
44
44
3c
00
00
ENDCHAR
STARTCHAR 00e1
ENCODING 225
SWIDTH 480 0
DWIDTH 7 0
BBX 7 14 0 -2
BITMAP
00
08
10
20
00
38
44
04
3c
44
44
3c
00
00
ENDCHAR
STARTCHAR 00e2
ENCODING 226
SWIDTH 480 0
DWIDTH 7 0
BBX 7 14 0 -2
BITMAP
00
00
30
48
00
38
44
04
3c
44
44
3c
00
00
ENDCHAR
STARTCHAR 00e3
ENCODING 227
SWIDTH 480 0
DWIDTH 7 0
BBX 7 14 0 -2
BITMAP
00
00
28
50
00
38
44
04
3c
44
44
3c
00
00
ENDCHAR
STARTCHAR 00e4
ENCODING 228
SWIDTH 480 0
DWIDTH 7 0
BBX 7 14 0 -2
BITMAP
00
00
00
28
00
38
44
04
3c
44
44
3c
00
00
ENDCHAR
STARTCHAR 00e5
ENCODING 229
SWIDTH 480 0
DWIDTH 7 0
BBX 7 14 0 -2
BITMAP
00
10
28
10
00
38
44
04
3c
44
44
3c
00
00
ENDCHAR
STARTCHAR 00e6
ENCODING 230
SWIDTH 480 0
DWIDTH 7 0
BBX 7 14 0 -2
BITMAP
00
00
00
00
00
3c
52
12
3e
50
52
3c
00
00
ENDCHAR
STARTCHAR 00e7
ENCODING 231
SWIDTH 480 0
DWIDTH 7 0
BBX 7 14 0 -2
BITMAP
00
00
00
00
00
38
44
40
40
40
44
38
08
10
ENDCHAR
STARTCHAR 00e8
ENCODING 232
SWIDTH 480 0
DWIDTH 7 0
BBX 7 14 0 -2
BITMAP
00
20
10
08
00
38
44
44
7c
40
44
38
00
00
ENDCHAR
STARTCHAR 00e9
ENCODING 233
SWIDTH 480 0
DWIDTH 7 0
BBX 7 14 0 -2
BITMAP
00
08
10
20
00
38
44
44
7c
40
44
38
00
00
ENDCHAR
STARTCHAR 00ea
ENCODING 234
SWIDTH 480 0
DWIDTH 7 0
BBX 7 14 0 -2
BITMAP
00
00
30
48
00
38
44
44
7c
40
44
38
00
00
ENDCHAR
STARTCHAR 00eb
ENCODING 235
SWIDTH 480 0
DWIDTH 7 0
BBX 7 14 0 -2
BITMAP
00
00
00
28
00
38
44
44
78
40
44
38
00
00
ENDCHAR
STARTCHAR 00ec
ENCODING 236
SWIDTH 480 0
DWIDTH 7 0
BBX 7 14 0 -2
BITMAP
00
20
10
08
00
30
10
10
10
10
10
38
00
00
ENDCHAR
STARTCHAR 00ed
ENCODING 237
SWIDTH 480 0
DWIDTH 7 0
BBX 7 14 0 -2
BITMAP
00
08
10
20
00
30
10
10
10
10
10
38
00
00
ENDCHAR
STARTCHAR 00ee
ENCODING 238
SWIDTH 480 0
DWIDTH 7 0
BBX 7 14 0 -2
BITMAP
00
00
30
48
00
30
10
10
10
10
10
38
00
00
ENDCHAR
STARTCHAR 00ef
ENCODING 239
SWIDTH 480 0
DWIDTH 7 0
BBX 7 14 0 -2
BITMAP
00
00
00
28
00
30
10
10
10
10
10
38
00
00
ENDCHAR
STARTCHAR 00f0
ENCODING 240
SWIDTH 480 0
DWIDTH 7 0
BBX 7 14 0 -2
BITMAP
00
28
10
28
04
3c
44
44
44
44
44
3c
00
00
ENDCHAR
STARTCHAR 00f1
ENCODING 241
SWIDTH 480 0
DWIDTH 7 0
BBX 7 14 0 -2
BITMAP
00
00
28
50
00
78
44
44
44
44
44
44
00
00
ENDCHAR
STARTCHAR 00f2
ENCODING 242
SWIDTH 480 0
DWIDTH 7 0
BBX 7 14 0 -2
BITMAP
00
20
10
08
00
38
44
44
44
44
44
38
00
00
ENDCHAR
STARTCHAR 00f3
ENCODING 243
SWIDTH 480 0
DWIDTH 7 0
BBX 7 14 0 -2
BITMAP
00
08
10
20
00
38
44
44
44
44
44
38
00
00
ENDCHAR
STARTCHAR 00f4
ENCODING 244
SWIDTH 480 0
DWIDTH 7 0
BBX 7 14 0 -2
BITMAP
00
00
30
48
00
38
44
44
44
44
44
38
00
00
ENDCHAR
STARTCHAR 00f5
ENCODING 245
SWIDTH 480 0
DWIDTH 7 0
BBX 7 14 0 -2
BITMAP
00
00
28
50
00
38
44
44
44
44
44
38
00
00
ENDCHAR
STARTCHAR 00f6
ENCODING 246
SWIDTH 480 0
DWIDTH 7 0
BBX 7 14 0 -2
BITMAP
00
00
00
28
00
38
44
44
44
44
44
38
00
00
ENDCHAR
STARTCHAR 00f7
ENCODING 247
SWIDTH 480 0
DWIDTH 7 0
BBX 7 14 0 -2
BITMAP
00
00
00
00
00
10
10
00
7c
00
10
10
00
00
ENDCHAR
STARTCHAR 00f8
ENCODING 248
SWIDTH 480 0
DWIDTH 7 0
BBX 7 14 0 -2
BITMAP
00
00
00
04
04
38
44
4c
54
64
44
38
40
40
ENDCHAR
STARTCHAR 00f9
ENCODING 249
SWIDTH 480 0
DWIDTH 7 0
BBX 7 14 0 -2
BITMAP
00
20
10
08
00
44
44
44
44
44
44
38
00
00
ENDCHAR
STARTCHAR 00fa
ENCODING 250
SWIDTH 480 0
DWIDTH 7 0
BBX 7 14 0 -2
BITMAP
00
08
10
20
00
44
44
44
44
44
44
38
00
00
ENDCHAR
STARTCHAR 00fb
ENCODING 251
SWIDTH 480 0
DWIDTH 7 0
BBX 7 14 0 -2
BITMAP
00
00
30
48
00
44
44
44
44
44
44
38
00
00
ENDCHAR
STARTCHAR 00fc
ENCODING 252
SWIDTH 480 0
DWIDTH 7 0
BBX 7 14 0 -2
BITMAP
00
00
00
28
00
44
44
44
44
44
44
38
00
00
ENDCHAR
STARTCHAR 00fd
ENCODING 253
SWIDTH 480 0
DWIDTH 7 0
BBX 7 14 0 -2
BITMAP
00
08
10
20
00
44
44
44
44
44
3c
04
44
38
ENDCHAR
STARTCHAR 00fe
ENCODING 254
SWIDTH 480 0
DWIDTH 7 0
BBX 7 14 0 -2
BITMAP
00
00
40
40
40
58
64
44
44
44
64
58
40
40
ENDCHAR
STARTCHAR 00ff
ENCODING 255
SWIDTH 480 0
DWIDTH 7 0
BBX 7 14 0 -2
BITMAP
00
00
00
28
00
44
44
44
44
44
3c
04
44
38
ENDCHAR
ENDFONT
